<?xml version="1.0" standalone="no"?><!DOCTYPE svg PUBLIC "-//W3C//DTD SVG 1.1//EN" "http://www.w3.org/Graphics/SVG/1.1/DTD/svg11.dtd"><svg t="1533381809893" class="icon" style="" viewBox="0 0 1271 1024" version="1.1" xmlns="http://www.w3.org/2000/svg" p-id="2206" xmlns:xlink="http://www.w3.org/1999/xlink" width="39.71875" height="32"><defs><style type="text/css"></style></defs><path d="M1200.552 1024H70.62A70.62 70.62 0 0 1 0 953.38V211.861a70.62 70.62 0 0 1 70.62-70.62h229.8L423.724 17.937V0h423.724L988.69 141.241h211.862a70.62 70.62 0 0 1 70.62 70.621V953.38a70.62 70.62 0 0 1-70.62 70.621z m0-776.828a35.31 35.31 0 0 0-35.31-35.31H953.378v-18.185l-6.073 6.074L818.21 70.62H477.007L335.731 211.897l-17.938-17.937v17.902H105.931a35.31 35.31 0 0 0-35.31 35.31V918.07a35.31 35.31 0 0 0 35.31 35.31h1059.31a35.31 35.31 0 0 0 35.31-35.31V247.172zM635.586 865.103a282.483 282.483 0 1 1 0-564.965 282.483 282.483 0 0 1 0 564.965z m0-494.344a211.862 211.862 0 1 0 0 423.724 211.862 211.862 0 0 0 0-423.724z" p-id="2207" fill="#ffffff"></path></svg>