<?xml version="1.0" standalone="no"?><!DOCTYPE svg PUBLIC "-//W3C//DTD SVG 1.1//EN" "http://www.w3.org/Graphics/SVG/1.1/DTD/svg11.dtd"><svg t="1533454774661" class="icon" style="" viewBox="0 0 1040 1024" version="1.1" xmlns="http://www.w3.org/2000/svg" p-id="7808" xmlns:xlink="http://www.w3.org/1999/xlink" width="32.5" height="32"><defs><style type="text/css"></style></defs><path d="M333.78282291 866.493125l185.37159375-123.58139063 15.86025-10.57317187H900.32213541c34.72678125 0 63.00196875-28.2279375 63.00196875-62.95471875V165.752c0-34.6775625-28.2751875-62.9055-63.00196875-62.9055H144.92260416c-34.72875 0-62.95471875 28.2279375-62.95471875 62.9055v503.63282812c0 34.72678125 28.22695313 62.95471875 62.95373438 62.95471875h188.8621875V866.493125M270.82908853 984.10625V795.29328125H144.92260416C75.41982291 795.29328125 19.01218229 738.93584375 19.01218229 669.38482813V165.752C19.01218229 96.2511875 75.41982291 39.89375 144.92161979 39.89375h755.39953125c69.55003125 0 125.95767187 56.3574375 125.95767187 125.85825v503.63282812c0 69.55101563-56.40764062 125.90845312-125.95767187 125.90845313H554.07511979L270.82908853 984.10625z" p-id="7809" fill="#ffffff"></path></svg>