<?xml version="1.0" standalone="no"?><!DOCTYPE svg PUBLIC "-//W3C//DTD SVG 1.1//EN" "http://www.w3.org/Graphics/SVG/1.1/DTD/svg11.dtd"><svg t="1533454255540" class="icon" style="" viewBox="0 0 1033 1024" version="1.1" xmlns="http://www.w3.org/2000/svg" p-id="6537" xmlns:xlink="http://www.w3.org/1999/xlink" width="32.28125" height="32"><defs><style type="text/css"></style></defs><path d="M733.866667 34.133333c-89.6 0-170.666667 42.666667-221.866667 115.2-55.466667-72.533333-136.533333-115.2-221.866667-115.2C128 34.133333 0 179.2 0 349.866667c0 102.4 46.933333 174.933333 85.333333 234.666667 106.666667 170.666667 379.733333 379.733333 392.533333 388.266667 12.8 8.533333 25.6 12.8 38.4 12.8 12.8 0 25.6-4.266667 38.4-12.8 12.8-8.533333 281.6-221.866667 392.533333-388.266667 38.4-59.733333 85.333333-132.266667 85.333333-234.666667C1024 179.2 896 34.133333 733.866667 34.133333L733.866667 34.133333 733.866667 34.133333zM887.466667 546.133333c-102.4 162.133333-375.466667 371.2-375.466667 371.2s-273.066667-209.066667-375.466667-371.2c-38.4-59.733333-72.533333-115.2-72.533333-196.266667 0-136.533333 98.133333-243.2 221.866667-243.2 89.6 0 170.666667 59.733333 204.8 145.066667l0 0 0 0c4.266667 8.533333 8.533333 17.066667 17.066667 17.066667 8.533333 0 17.066667-8.533333 17.066667-17.066667l0 0c34.133333-85.333333 115.2-145.066667 204.8-145.066667 123.733333 0 221.866667 110.933333 221.866667 243.2C960 430.933333 925.866667 486.4 887.466667 546.133333L887.466667 546.133333 887.466667 546.133333zM887.466667 546.133333" p-id="6538" fill="#ffffff"></path></svg>