<?xml version="1.0" standalone="no"?><!DOCTYPE svg PUBLIC "-//W3C//DTD SVG 1.1//EN" "http://www.w3.org/Graphics/SVG/1.1/DTD/svg11.dtd"><svg t="1533193926909" class="icon" style="" viewBox="0 0 1024 1024" version="1.1" xmlns="http://www.w3.org/2000/svg" p-id="5902" xmlns:xlink="http://www.w3.org/1999/xlink" width="32" height="32"><defs><style type="text/css"></style></defs><path d="M464 350m-191 0a191 191 0 1 0 382 0 191 191 0 1 0-382 0Z" fill="#ffffff" p-id="5903"></path><path d="M464 571c-59.031 0-114.529-22.988-156.271-64.729C265.988 464.529 243 409.031 243 350s22.988-114.529 64.729-156.271C349.471 151.988 404.969 129 464 129s114.529 22.988 156.271 64.729C662.012 235.471 685 290.969 685 350s-22.988 114.529-64.729 156.271S523.031 571 464 571z m0-382c-88.776 0-161 72.224-161 161s72.224 161 161 161c88.775 0 161-72.224 161-161s-72.225-161-161-161z" fill="#ffffff" p-id="5904"></path><path d="M150.035 842.308c-1.748 0-3.519-0.153-5.299-0.471-16.312-2.907-27.177-18.487-24.27-34.799 14.526-81.488 57.515-155.961 121.046-209.698C305.811 542.952 387.667 513 472 513c86.901 0 170.65 31.586 235.818 88.938 12.438 10.946 13.647 29.902 2.701 42.34-10.944 12.437-29.902 13.647-42.34 2.701C613.972 599.273 544.3 573 472 573c-144.205 0-267.204 102.855-292.466 244.567-2.59 14.531-15.238 24.741-29.499 24.741zM859 733h-70v-70c0-16.5-13.5-30-30-30s-30 13.5-30 30v70h-70c-16.5 0-30 13.5-30 30s13.5 30 30 30h70v70c0 16.5 13.5 30 30 30s30-13.5 30-30v-70h70c16.5 0 30-13.5 30-30s-13.5-30-30-30z" fill="#ffffff" p-id="5905"></path></svg>