<?xml version="1.0" standalone="no"?><!DOCTYPE svg PUBLIC "-//W3C//DTD SVG 1.1//EN" "http://www.w3.org/Graphics/SVG/1.1/DTD/svg11.dtd"><svg t="1533209868489" class="icon" style="" viewBox="0 0 1025 1024" version="1.1" xmlns="http://www.w3.org/2000/svg" p-id="10099" xmlns:xlink="http://www.w3.org/1999/xlink" width="32.03125" height="32"><defs><style type="text/css"></style></defs><path d="M851.653 172.673c-187.408-187.43-491.335-187.43-678.765 0-187.42 187.431-187.42 491.346 0 678.755 187.43 187.431 491.357 187.431 678.765 0 187.43-187.408 187.43-491.324 0-678.755v0zM205.408 818.929c-169.486-169.486-169.486-444.271 0-613.735 169.486-169.486 444.259-169.486 613.746 0 169.464 169.465 169.464 444.248 0 613.778-169.486 169.571-444.26 169.423-613.746-0.042v0zM205.408 818.929z" p-id="10100" fill="#8a8a8a"></path><path d="M442.322 437.718l-175.304 324.032 317.842-181.483 181.485-317.854-324.023 175.304zM516.655 543.505c-17.4 0-31.432-14.044-31.432-31.432 0-17.348 14.097-31.456 31.432-31.456 17.337 0 31.445 14.108 31.445 31.456 0 17.39-14.108 31.432-31.445 31.432v0zM516.655 543.505z" p-id="10101" fill="#8a8a8a"></path></svg>