<?xml version="1.0" standalone="no"?><!DOCTYPE svg PUBLIC "-//W3C//DTD SVG 1.1//EN" "http://www.w3.org/Graphics/SVG/1.1/DTD/svg11.dtd"><svg t="1533209368418" class="icon" style="" viewBox="0 0 1024 1024" version="1.1" xmlns="http://www.w3.org/2000/svg" p-id="7894" xmlns:xlink="http://www.w3.org/1999/xlink" width="32" height="32"><defs><style type="text/css"></style></defs><path d="M886.7 799.7C828 743 644.1 667.6 636.4 664.5c-2.3-1-5.5-5-5.7-7.4l-5.7-56c39.7-30.4 68.5-78.7 85.7-143.8 23-2.3 45.4-28.7 55.4-65.7 11.8-44.1 0.9-82.5-25.6-89.5-3.8-1-7.8-1.3-11.7-0.9-0.8-155-75.7-237-216.5-237-140.9 0-215.8 82-216.7 237.1-4-0.4-7.9-0.1-11.7 1-26.3 7.1-37.3 45.5-25.6 89.5 10 37 32.4 63.3 55.4 65.7 17.3 64.9 46 113.1 85.4 143.5l-5.8 56.3c-0.2 2.6-3.3 6.5-5.6 7.4-7.8 3.2-191.7 78.4-250.5 135.3-48.1 46.5-48.3 106.8-36.7 135.6 6 14.9 16 24.2 27.3 24.2h768.3c11.3 0 21.2-9.3 27.3-24.1 11.7-29.2 11.5-89.5-36.7-136z m9 124.3c-0.9 2.3-1.8 5.5-2.4 5.5H130.8c-0.6 0-1.6-3.2-2.4-5.5-8.3-20.5-7.4-66.5 29.7-102.4 43.7-42.1 176.7-103 241-129.2 12.7-5.2 22.6-18.8 24-32.1l7.5-72.8-13.3-10.2c-34.1-26.3-59.2-69.1-74.8-127.5l-5.4-20-20.6-2.1c-6.2-0.6-21.7-14.5-29.5-43.7-8.9-33.2 0.4-51.9 4.4-53l32.8 3.4 1.1-33C326.1 162 387.2 94.1 512 94.1S697.9 162 698.7 301.5l0.2 32.9 32.8-3.3c5 1.1 14.2 19.7 5.4 53-7.8 29.2-23.4 43.1-29.5 43.7l-20.6 2.1-5.4 20c-15.6 58.5-40.9 101.5-75 127.8l-13.3 10.2 7.5 72.5c1.3 13.3 11.4 26.8 24 32 64.3 26.1 197.2 86.6 241.1 129 37.3 35.7 38.1 82.2 29.8 102.6z" fill="#8a8a8a" p-id="7895"></path></svg>