<?xml version="1.0" standalone="no"?><!DOCTYPE svg PUBLIC "-//W3C//DTD SVG 1.1//EN" "http://www.w3.org/Graphics/SVG/1.1/DTD/svg11.dtd"><svg t="1533461862127" class="icon" style="" viewBox="0 0 1024 1024" version="1.1" xmlns="http://www.w3.org/2000/svg" p-id="2218" xmlns:xlink="http://www.w3.org/1999/xlink" width="32" height="32"><defs><style type="text/css"></style></defs><path d="M123.245227 512.416427z m-99.403094 0c0 54.89664 44.506453 99.406507 99.403094 99.406506s99.403093-44.506453 99.403093-99.406506S178.141867 413.013333 123.245227 413.013333 23.842133 457.516373 23.842133 512.416427M512 512.416427z m-99.403093 0c0 54.89664 44.506453 99.406507 99.403093 99.406506 54.900053 0 99.403093-44.506453 99.403093-99.406506S566.900053 413.013333 512 413.013333c-54.89664 0-99.403093 44.50304-99.403093 99.403094M900.754773 512.416427z m-99.403093 0c0 54.89664 44.50304 99.406507 99.39968 99.406506 54.900053 0 99.403093-44.506453 99.403093-99.406506S955.654827 413.013333 900.754773 413.013333c-54.89664 0-99.403093 44.50304-99.403093 99.403094" p-id="2219" fill="#ffffff"></path></svg>