<?xml version="1.0" standalone="no"?><!DOCTYPE svg PUBLIC "-//W3C//DTD SVG 1.1//EN" "http://www.w3.org/Graphics/SVG/1.1/DTD/svg11.dtd"><svg t="1533360925636" class="icon" style="" viewBox="0 0 1024 1024" version="1.1" xmlns="http://www.w3.org/2000/svg" p-id="1954" xmlns:xlink="http://www.w3.org/1999/xlink" width="32" height="32"><defs><style type="text/css"></style></defs><path d="M138.5 153.1c0 81.3 65.9 147.1 147.1 147.1s147.1-65.9 147.1-147.1S366.9 6 285.6 6 138.5 71.9 138.5 153.1zM587.6 153.1c0 81.3 65.9 147.1 147.1 147.1s147.1-65.9 147.1-147.1S816 6 734.7 6 587.6 71.9 587.6 153.1zM911.2 771.8l-0.2 0.1-131.4-227.6h1.4V520c0-19.9 16.2-36.1 36.1-36.1h127.5c19.9 0 36.1-16.2 36.1-36.1v-37.7c0-19.9-16.2-36.1-36.1-36.1H81.2c-19.9 0-36.1 16.2-36.1 36.1v37.7c0 19.9 16.2 36.1 36.1 36.1h127.5c19.9 0 36.1 16.2 36.1 36.1v7.7c0 6.3-1.7 12.6-4.8 18L109.3 771.8l-0.1-0.1-100 173.4c-10 17.3-4.1 39.3 13.2 49.3l32.6 18.9c17.3 10 39.3 4.1 49.3-13.2l10.6-18.3 0.1 0.1 150.7-261c13.9-24.1 48.6-24.1 62.5 0l118.5 205.3-0.4 0.7 1.2 0.7 31.3 54.2c13.9 24.2 48.7 24.1 62.6 0l31.3-54.2 1.2-0.7-0.4-0.7L692 720.9c13.9-24.1 48.6-24.1 62.5 0l150.7 261 0.2-0.1 10.6 18.4c10 17.3 32 23.2 49.3 13.2l32.6-18.8c17.3-10 23.2-32 13.2-49.3l-99.9-173.5zM666.3 545.7L541.4 762.1c-13.9 24.1-48.6 24.1-62.5 0L353.1 544.3h1.4V520c0-19.9 16.2-36.1 36.1-36.1H635.1c19.9 0 36.1 16.2 36.1 36.1v7.7c-0.1 6.3-1.7 12.5-4.9 18z" fill="#1296db" p-id="1955"></path></svg>