<?xml version="1.0" standalone="no"?><!DOCTYPE svg PUBLIC "-//W3C//DTD SVG 1.1//EN" "http://www.w3.org/Graphics/SVG/1.1/DTD/svg11.dtd"><svg t="1533361094947" class="icon" style="" viewBox="0 0 1024 1024" version="1.1" xmlns="http://www.w3.org/2000/svg" p-id="5934" xmlns:xlink="http://www.w3.org/1999/xlink" width="32" height="32"><defs><style type="text/css"></style></defs><path d="M527.872 567.296m-30.72 0a30.72 30.72 0 1 0 61.44 0 30.72 30.72 0 1 0-61.44 0Z" fill="#FFFFFF" p-id="5935"></path><path d="M921.6 1024H102.4c-28.16 0-51.2-23.04-51.2-51.2V51.2C51.2 23.04 74.24 0 102.4 0h819.2c28.16 0 51.2 23.04 51.2 51.2v921.6c0 28.16-23.04 51.2-51.2 51.2z" fill="#ED1C24" p-id="5936"></path><path d="M256 256m-51.2 0a51.2 51.2 0 1 0 102.4 0 51.2 51.2 0 1 0-102.4 0Z" fill="#FFFFFF" p-id="5937"></path><path d="M768 256m-51.2 0a51.2 51.2 0 1 0 102.4 0 51.2 51.2 0 1 0-102.4 0Z" fill="#FFFFFF" p-id="5938"></path><path d="M512 742.4c-155.136 0-281.6-126.464-281.6-281.6V256h51.2v204.8c0 126.976 103.424 230.4 230.4 230.4s230.4-103.424 230.4-230.4V256h51.2v204.8c0 155.136-126.464 281.6-281.6 281.6z" fill="#FFFFFF" p-id="5939"></path></svg>